# File created by Blade
# Date/Time:  Tue Apr 07 21:12:38 2015
# Frame Rate: 120.000 fps
#------------------------------------------------------
:FULLY-SPECIFIED
:DEGREES
653
root 24.983304 18.976489 10.553526 550.379358 -75.681294 -478.259642
Spine 56.548597 10.028689 -3.525909
Head -45.094114 -0.158422 3.166306
LeftShoulder -1.183141 5.741574 39.447711
LeftArm 133.536916 -33.192846 -127.605849
LeftForeArm 23.719686 -0.000000 100.834887
LeftHand -6.401276 -0.000000 -5.604346
LeftHandThumb1 -26.253704 0.000000 33.147579
RightShoulder 0.670669 47.341037 -44.917912
RightArm 68.741998 46.362195 93.573580
RightForeArm -16.614735 0.000000 104.996254
RightHand -0.258778 -0.000000 11.885240
RightHandThumb1 -24.326973 -0.000000 -32.862282
LeftUpLeg -69.212314 6.317987 -6.762563
LeftLeg 97.492490 -0.000000 -0.000000
LeftFoot -25.736707 17.069219 42.295998
LeftToeBase 113.975412 -0.000000 -0.000000
RightUpLeg -102.774190 -1.806906 13.661578
RightLeg 120.497519 -0.000000 -0.000000
RightFoot -29.247697 9.483097 1.431904
RightToeBase -72.492275 -0.000000 0.000000
654
root 24.942213 19.094312 10.533410 551.246393 -76.043894 -478.319645
Spine 56.037390 9.682687 -3.755012
Head -45.255805 0.011180 3.306321
LeftShoulder -1.273555 5.711178 39.428620
LeftArm 133.832014 -33.274191 -127.634581
LeftForeArm 23.677737 0.000000 100.829480
LeftHand -6.375769 0.000000 -5.605860
LeftHandThumb1 -26.253704 0.000000 33.147579
RightShoulder 0.586518 47.399554 -44.969748
RightArm 68.860944 46.528767 93.660475
RightForeArm -16.502604 -0.000000 105.234518
RightHand -0.386965 -0.000000 11.974690
RightHandThumb1 -24.326973 -0.000000 -32.862282
LeftUpLeg -69.602887 5.787416 -6.690889
LeftLeg 96.561088 -0.000000 -0.000000
LeftFoot -25.903124 17.365240 42.411515
LeftToeBase 113.995880 -0.000000 -0.000000
RightUpLeg -103.260996 -1.967794 13.937554
RightLeg 119.912011 -0.000000 -0.000000
RightFoot -29.339272 9.250243 1.287363
RightToeBase -72.367014 -0.000000 0.000000
655
root 24.909200 19.229377 10.505047 552.318995 -76.393004 -478.407335
Spine 55.343771 9.449824 -3.990211
Head -45.408930 0.173854 3.600846
LeftShoulder -1.304933 5.576626 39.560568
LeftArm 134.049165 -33.372148 -127.684044
LeftForeArm 23.688768 -0.000000 100.842326
LeftHand -6.390645 -0.000000 -5.620952
LeftHandThumb1 -26.253704 0.000000 33.147579
RightShoulder 0.565290 47.098189 -44.900734
RightArm 69.351582 46.803196 93.867372
RightForeArm -16.438876 -0.000000 105.457905
RightHand -0.592147 -0.000000 11.880276
RightHandThumb1 -24.326973 -0.000000 -32.862282
LeftUpLeg -70.202949 5.246427 -6.577906
LeftLeg 95.604602 -0.000000 -0.000000
LeftFoot -26.110649 17.573719 42.293042
LeftToeBase 114.146992 -0.000000 -0.000000
RightUpLeg -103.852903 -1.512834 13.597820
RightLeg 119.266513 -0.000000 -0.000000
RightFoot -29.565144 8.946761 1.983235
RightToeBase -71.380960 -0.000000 0.000000
656
root 24.857885 19.369406 10.480902 553.208506 -76.806777 -478.463659
Spine 54.901947 9.159846 -4.116680
Head -45.661679 0.311519 3.847941
LeftShoulder -1.333770 5.405863 39.657962
LeftArm 134.316840 -33.428544 -127.750293
LeftForeArm 23.723585 -0.000000 100.848491
LeftHand -6.371505 0.000000 -5.629028
LeftHandThumb1 -26.253704 0.000000 33.147579
RightShoulder 0.474962 46.794710 -44.900785
RightArm 69.898683 47.093134 94.096537
RightForeArm -16.395501 -0.000000 105.672087
RightHand -0.820861 -0.000000 11.805061
RightHandThumb1 -24.326973 -0.000000 -32.862282
LeftUpLeg -70.591190 4.628858 -6.401904
LeftLeg 94.554631 -0.000000 -0.000000
LeftFoot -26.308475 17.730212 41.975316
LeftToeBase 114.239402 -0.000000 -0.000000
RightUpLeg -104.299693 -1.656442 13.898412
RightLeg 118.580382 -0.000000 -0.000000
RightFoot -29.707339 8.594878 1.890797
RightToeBase -70.740065 -0.000000 0.000000
657
root 24.809609 19.514853 10.458861 554.791872 -77.233061 -479.102267
Spine 54.312551 8.793387 -4.435867
Head -45.897303 0.472235 4.092029
LeftShoulder -1.407972 5.318956 39.750767
LeftArm 134.612186 -33.472775 -127.829513
LeftForeArm 23.714438 -0.000000 100.849843
LeftHand -6.397956 -0.000000 -5.629071
LeftHandThumb1 -26.253704 0.000000 33.147579
RightShoulder 0.307787 46.873794 -44.914187
RightArm 70.117165 47.195016 94.284789
RightForeArm -16.454348 -0.000000 105.850851
RightHand -0.971973 0.000000 11.916961
RightHandThumb1 -24.326973 -0.000000 -32.862282
LeftUpLeg -71.090434 3.926385 -6.313925
LeftLeg 93.450591 -0.000000 -0.000000
LeftFoot -26.507190 17.844490 41.594735
LeftToeBase 114.316538 -0.000000 -0.000000
RightUpLeg -104.956783 -1.823830 14.161336
RightLeg 117.923258 -0.000000 -0.000000
RightFoot -29.687831 8.222287 1.847907
RightToeBase -70.365572 -0.000000 0.000000
658
root 24.759214 19.669468 10.437390 556.519133 -77.717267 -479.833183
Spine 53.691800 8.318182 -4.754100
Head -46.139256 0.625849 4.286333
LeftShoulder -1.483061 5.322259 39.787846
LeftArm 135.040189 -33.534678 -127.939342
LeftForeArm 23.726110 -0.000000 100.794444
LeftHand -6.404297 -0.000000 -5.562583
LeftHandThumb1 -26.253704 0.000000 33.147579
RightShoulder 0.121492 47.199322 -44.976653
RightArm 70.131961 47.264294 94.432561
RightForeArm -16.499880 -0.000000 106.025372
RightHand -1.060173 0.000000 12.114564
RightHandThumb1 -24.326973 -0.000000 -32.862282
LeftUpLeg -71.629624 3.143615 -6.175187
LeftLeg 92.281853 -0.000000 -0.000000
LeftFoot -26.704790 17.906436 41.163271
LeftToeBase 114.436295 -0.000000 -0.000000
RightUpLeg -105.656888 -2.007054 14.433845
RightLeg 117.231835 -0.000000 -0.000000
RightFoot -29.734107 7.764341 1.784134
RightToeBase -69.845938 -0.000000 0.000000
659
root 24.699416 19.829087 10.413949 558.177011 -78.183234 -480.554924
Spine 53.179220 7.882701 -5.017888
Head -46.421864 0.775117 4.475308
LeftShoulder -1.550300 5.281805 39.845028
LeftArm 135.446706 -33.584819 -128.052836
LeftForeArm 23.865464 0.000000 100.736511
LeftHand -6.312461 -0.000000 -5.762134
LeftHandThumb1 -26.253704 0.000000 33.147579
RightShoulder -0.088112 47.543235 -45.062218
RightArm 70.181439 47.353668 94.639960
RightForeArm -16.518404 -0.000000 106.209321
RightHand -1.122578 -0.000000 12.330429
RightHandThumb1 -24.326973 -0.000000 -32.862282
LeftUpLeg -72.058631 2.380187 -5.966823
LeftLeg 91.025870 -0.000000 -0.000000
LeftFoot -26.940260 17.933588 40.669797
LeftToeBase 114.541656 -0.000000 -0.000000
RightUpLeg -106.231541 -2.143826 14.658568
RightLeg 116.491849 -0.000000 -0.000000
RightFoot -29.829174 7.331482 1.772837
RightToeBase -68.992840 -0.000000 0.000000
660
root 24.642500 19.990333 10.387302 559.982250 -78.616328 -481.390186
Spine 52.598740 7.461071 -5.369884
Head -46.646920 1.016534 4.757794
LeftShoulder -1.656379 5.356749 39.969560
LeftArm 135.905071 -33.592795 -128.194440
LeftForeArm 23.994082 0.000000 100.676412
LeftHand -6.309401 -0.000000 -5.698299
LeftHandThumb1 -26.253704 0.000000 33.147579
RightShoulder -0.125013 47.874446 -44.993734
RightArm 70.214954 47.584630 94.716119
RightForeArm -16.477849 0.000000 106.373409
RightHand -1.211911 0.000000 12.393551
RightHandThumb1 -24.326973 -0.000000 -32.862282
LeftUpLeg -72.513840 1.634049 -5.720492
LeftLeg 89.759225 -0.000000 -0.000000
LeftFoot -27.254397 17.942349 40.177280
LeftToeBase 114.615157 -0.000000 -0.000000
RightUpLeg -106.869805 -2.233468 14.907639
RightLeg 115.746998 -0.000000 -0.000000
RightFoot -29.830939 6.880326 1.826182
RightToeBase -68.455553 -0.000000 0.000000
661
root 24.583449 20.159743 10.363621 562.009020 -79.099097 -482.399264
Spine 52.004614 7.040247 -5.593555
Head -46.892353 1.159062 4.991716
LeftShoulder -1.671634 5.325441 40.101807
LeftArm 136.332838 -33.591859 -128.346632
LeftForeArm 24.142317 0.000000 100.614358
LeftHand -6.308192 0.000000 -5.616194
LeftHandThumb1 -26.253704 0.000000 33.147579
RightShoulder -0.205697 48.132577 -45.022095
RightArm 70.227371 47.946637 94.718480
RightForeArm -16.364914 0.000000 106.547537
RightHand -1.338702 -0.000000 12.472277
RightHandThumb1 -24.326973 -0.000000 -32.862282
LeftUpLeg -72.999910 0.814191 -5.432168
LeftLeg 88.399736 -0.000000 -0.000000
LeftFoot -27.562083 17.899780 39.663624
LeftToeBase 114.741344 -0.000000 -0.000000
RightUpLeg -107.561976 -2.356337 15.115131
RightLeg 114.976125 -0.000000 -0.000000
RightFoot -29.827449 6.480340 1.845447
RightToeBase -67.837908 -0.000000 0.000000
662
root 24.526721 20.336606 10.342323 564.289111 -79.585858 -483.543055
Spine 51.299333 6.599778 -5.751014
Head -47.168812 1.168618 5.153004
LeftShoulder -1.644803 5.140379 40.172594
LeftArm 136.709857 -33.634540 -128.435107
LeftForeArm 24.285357 -0.000000 100.474667
LeftHand -6.083667 -0.000000 -5.385041
LeftHandThumb1 -26.253704 0.000000 33.147579
RightShoulder -0.431756 48.190240 -45.218336
RightArm 70.501218 48.199755 95.029269
RightForeArm -16.376750 0.000000 106.701209
RightHand -1.371505 -0.000000 12.526164
RightHandThumb1 -24.326973 -0.000000 -32.862282
LeftUpLeg -73.607252 -0.025651 -5.123663
LeftLeg 86.984050 -0.000000 -0.000000
LeftFoot -27.784229 17.880665 39.318333
LeftToeBase 114.983814 -0.000000 -0.000000
RightUpLeg -108.393709 -2.459019 15.348748
RightLeg 114.166591 -0.000000 -0.000000
RightFoot -29.740440 6.033445 1.867712
RightToeBase -67.478314 -0.000000 0.000000
663
root 24.455759 20.517806 10.316342 566.532936 -80.014033 -484.778455
Spine 50.733432 6.143734 -6.044141
Head -47.398247 1.375540 5.355169
LeftShoulder -1.696859 5.043059 40.301594
LeftArm 137.054305 -33.747434 -128.552191
LeftForeArm 24.384132 -0.000000 100.422559
LeftHand -6.269647 0.000000 -5.438682
LeftHandThumb1 -26.253704 0.000000 33.147579
RightShoulder -0.408837 48.293170 -45.168734
RightArm 70.814622 48.493368 95.227423
RightForeArm -16.349736 -0.000000 106.782812
RightHand -1.353800 0.000000 12.435903
RightHandThumb1 -24.326973 -0.000000 -32.862282
LeftUpLeg -74.013339 -0.770910 -4.796141
LeftLeg 85.476256 -0.000000 -0.000000
LeftFoot -27.986977 18.058467 39.165806
LeftToeBase 115.015268 -0.000000 -0.000000
RightUpLeg -108.981090 -2.517987 15.445543
RightLeg 113.295033 -0.000000 -0.000000
RightFoot -29.845032 5.801849 2.044367
RightToeBase -66.499797 -0.000000 0.000000
